<?xml version="1.0" standalone="no"?>
<!DOCTYPE svg PUBLIC "-//W3C//DTD SVG 20010904//EN"
 "http://www.w3.org/TR/2001/REC-SVG-20010904/DTD/svg10.dtd">
<svg version="1.0" xmlns="http://www.w3.org/2000/svg"
 width="600.000000pt" height="416.000000pt" viewBox="0 0 600.000000 416.000000"
 preserveAspectRatio="xMidYMid meet">

<g transform="translate(0.000000,416.000000) scale(0.100000,-0.100000)"
fill="#000000" stroke="none">
<path d="M5274 2890 c-11 -4 -33 -22 -47 -40 -24 -28 -27 -40 -27 -105 0 -73
0 -75 -45 -127 -185 -217 -237 -303 -258 -421 l-11 -67 -72 70 -72 70 -141 0
c-128 0 -143 -2 -161 -20 -19 -19 -20 -33 -20 -423 l0 -402 83 -83 82 -82 146
0 c183 0 179 -3 179 133 0 53 4 97 8 97 4 0 34 -27 67 -60 l59 -60 389 0 c421
0 422 0 466 56 22 29 28 83 11 114 -8 15 -4 25 20 51 16 18 32 45 35 60 6 28
-15 91 -34 103 -6 4 -1 23 14 53 30 56 31 78 4 122 l-21 34 26 53 c15 31 26
70 26 95 0 38 -6 47 -82 126 -109 112 -132 123 -253 123 -52 0 -95 1 -95 3 0
1 7 24 15 51 19 63 19 178 0 242 -12 40 -31 65 -102 136 -103 102 -137 119
-189 98z m96 -30 c85 -60 89 -251 10 -426 -16 -37 -30 -71 -30 -75 0 -5 84 -9
187 -9 170 0 191 -2 231 -21 60 -29 80 -72 63 -131 -7 -24 -22 -55 -32 -70
-24 -32 -24 -34 1 -65 26 -33 25 -75 -1 -129 l-22 -42 22 -30 c32 -46 28 -94
-12 -134 -32 -33 -32 -33 -18 -74 18 -50 3 -87 -48 -121 -34 -23 -35 -23 -416
-23 -322 0 -384 2 -395 15 -9 10 -11 96 -8 342 3 323 4 329 29 399 31 85 75
154 166 258 123 141 115 126 117 217 1 78 2 82 34 110 39 35 81 38 122 9z
m-616 -626 c14 -13 16 -64 16 -406 0 -350 -2 -393 -17 -410 -14 -16 -33 -18
-154 -18 -131 0 -139 1 -153 22 -14 19 -16 75 -16 403 0 328 2 384 16 403 14
21 22 22 154 22 113 0 142 -3 154 -16z m130 -409 c2 -160 7 -333 11 -385 l7
-95 -56 55 -56 54 0 376 0 375 45 -46 46 -45 3 -289z"/>
</g>
</svg>
