<svg width="22" height="19" viewBox="0 0 22 19" fill="none" xmlns="http://www.w3.org/2000/svg">
<path d="M14.7748 9.97578L13.6498 8.85078C13.7998 8.01745 13.5625 7.27178 12.9378 6.61378C12.3125 5.95511 11.5498 5.70078 10.6498 5.85078L9.5248 4.72578C9.75814 4.62578 9.99147 4.55078 10.2248 4.50078C10.4581 4.45078 10.7165 4.42578 10.9998 4.42578C12.1331 4.42578 13.0955 4.82178 13.8868 5.61378C14.6788 6.40511 15.0748 7.36745 15.0748 8.50078C15.0748 8.78411 15.0498 9.04645 14.9998 9.28778C14.9498 9.52978 14.8748 9.75912 14.7748 9.97578ZM17.9498 13.0758L16.8498 12.0508C17.4831 11.5674 18.0458 11.0381 18.5378 10.4628C19.0291 9.88811 19.4498 9.23411 19.7998 8.50078C18.9665 6.81745 17.7705 5.47978 16.2118 4.48778C14.6538 3.49645 12.9165 3.00078 10.9998 3.00078C10.5165 3.00078 10.0415 3.03411 9.5748 3.10078C9.10814 3.16745 8.6498 3.26745 8.1998 3.40078L7.0248 2.22578C7.65814 1.97578 8.30414 1.79245 8.9628 1.67578C9.6208 1.55911 10.2998 1.50078 10.9998 1.50078C13.3498 1.50078 15.4665 2.14678 17.3498 3.43878C19.2331 4.73011 20.5998 6.41745 21.4498 8.50078C21.0831 9.40078 20.6081 10.2381 20.0248 11.0128C19.4415 11.7881 18.7498 12.4758 17.9498 13.0758ZM18.7498 18.8758L14.7248 14.8508C14.2081 15.0508 13.6375 15.2091 13.0128 15.3258C12.3875 15.4424 11.7165 15.5008 10.9998 15.5008C8.64981 15.5008 6.53714 14.8548 4.66181 13.5628C2.78714 12.2714 1.41647 10.5841 0.549805 8.50078C0.916471 7.61745 1.39147 6.79245 1.9748 6.02578C2.55814 5.25911 3.1998 4.60078 3.8998 4.05078L1.1248 1.25078L2.1748 0.175781L19.8248 17.8258L18.7498 18.8758ZM4.9498 5.10078C4.41647 5.51745 3.90414 6.02178 3.4128 6.61378C2.9208 7.20511 2.51647 7.83411 2.1998 8.50078C3.03314 10.1841 4.22881 11.5214 5.78681 12.5128C7.34547 13.5048 9.08314 14.0008 10.9998 14.0008C11.4498 14.0008 11.8998 13.9631 12.3498 13.8878C12.7998 13.8131 13.1831 13.7341 13.4998 13.6508L12.2498 12.3508C12.0665 12.4174 11.8665 12.4714 11.6498 12.5128C11.4331 12.5548 11.2165 12.5758 10.9998 12.5758C9.86647 12.5758 8.90414 12.1798 8.1128 11.3878C7.3208 10.5964 6.9248 9.63411 6.9248 8.50078C6.9248 8.30078 6.9458 8.08811 6.9878 7.86278C7.02914 7.63811 7.08314 7.43411 7.1498 7.25078L4.9498 5.10078Z" fill="#5C5C5C"/>
</svg>
